<svg id="Vrstva_1" data-name="Vrstva 1" xmlns="http://www.w3.org/2000/svg" viewBox="0 0 29.59 29.59"><title>IG-IC</title><path d="M15,2.85c4,0,4.42,0,6,.09a8.33,8.33,0,0,1,2.75.51,4.6,4.6,0,0,1,1.7,1.11,4.52,4.52,0,0,1,1.11,1.7A8.33,8.33,0,0,1,27,9c.07,1.56.09,2,.09,6s0,4.42-.09,6a8.33,8.33,0,0,1-.51,2.75,4.94,4.94,0,0,1-2.81,2.81A8.33,8.33,0,0,1,21,27c-1.56.07-2,.09-6,.09s-4.41,0-6-.09a8.33,8.33,0,0,1-2.75-.51,4.52,4.52,0,0,1-1.7-1.11,4.6,4.6,0,0,1-1.11-1.7A8.33,8.33,0,0,1,2.94,21c-.07-1.56-.09-2-.09-6s0-4.41.09-6a8.33,8.33,0,0,1,.51-2.75,4.52,4.52,0,0,1,1.11-1.7,4.52,4.52,0,0,1,1.7-1.11A8.33,8.33,0,0,1,9,2.94c1.56-.07,2-.09,6-.09M15,.19c-4,0-4.52,0-6.1.09A11,11,0,0,0,5.29,1,7.32,7.32,0,0,0,2.67,2.67,7.32,7.32,0,0,0,1,5.29,11,11,0,0,0,.28,8.88C.2,10.46.19,11,.19,15s0,4.53.09,6.11A11,11,0,0,0,1,24.68,7.32,7.32,0,0,0,2.67,27.3,7.16,7.16,0,0,0,5.29,29a10.71,10.71,0,0,0,3.59.69c1.58.07,2.09.09,6.1.09s4.53,0,6.11-.09A10.71,10.71,0,0,0,24.68,29,7.5,7.5,0,0,0,29,24.68a10.71,10.71,0,0,0,.69-3.59c.07-1.58.09-2.09.09-6.11s0-4.52-.09-6.1A10.71,10.71,0,0,0,29,5.29a7.16,7.16,0,0,0-1.7-2.62A7.32,7.32,0,0,0,24.68,1,11,11,0,0,0,21.09.28C19.51.2,19,.19,15,.19Z" transform="translate(-0.19 -0.19)"/><path d="M15,7.39A7.6,7.6,0,1,0,22.58,15,7.59,7.59,0,0,0,15,7.39Zm0,12.53A4.94,4.94,0,1,1,19.92,15,4.94,4.94,0,0,1,15,19.92Z" transform="translate(-0.19 -0.19)"/><circle cx="22.7" cy="6.9" r="1.78"/></svg>